<mxfile host="app.diagrams.net" modified="2021-03-03T02:21:52.357Z" agent="5.0 (Windows NT 10.0; Win64; x64) AppleWebKit/537.36 (KHTML, like Gecko) Chrome/88.0.4324.182 Safari/537.36 Edg/88.0.705.81" etag="RLZwUNli2gc3XKrQyo_-" version="14.4.3" type="github">
  <diagram name="Page-1" id="12e1b939-464a-85fe-373e-61e167be1490">
    <mxGraphModel dx="2235" dy="3220" grid="0" gridSize="10" guides="1" tooltips="1" connect="1" arrows="1" fold="1" page="0" pageScale="1.5" pageWidth="1169" pageHeight="826" background="#ffffff" math="0" shadow="0">
      <root>
        <mxCell id="0" />
        <mxCell id="1" parent="0" />
        <mxCell id="60da8b9f42644d3a-2" value="" style="whiteSpace=wrap;html=1;rounded=1;shadow=0;strokeWidth=8;fontSize=20;align=center;fillColor=#60a917;strokeColor=#2D7600;fontColor=#ffffff;" parent="1" vertex="1">
          <mxGeometry x="-397" y="-2193" width="280" height="430" as="geometry" />
        </mxCell>
        <mxCell id="60da8b9f42644d3a-3" value="1.数据采集" style="text;html=1;strokeColor=none;fillColor=none;align=center;verticalAlign=middle;whiteSpace=wrap;rounded=0;shadow=0;fontSize=27;fontColor=#FFFFFF;fontStyle=1" parent="1" vertex="1">
          <mxGeometry x="-380" y="-2160" width="250" height="60" as="geometry" />
        </mxCell>
        <mxCell id="60da8b9f42644d3a-6" value="" style="line;strokeWidth=2;html=1;rounded=0;shadow=0;fontSize=27;align=center;fillColor=none;strokeColor=#FFFFFF;" parent="1" vertex="1">
          <mxGeometry x="-360" y="-2100" width="240" height="10" as="geometry" />
        </mxCell>
        <mxCell id="60da8b9f42644d3a-17" value="" style="whiteSpace=wrap;html=1;rounded=1;shadow=0;strokeWidth=8;fontSize=20;align=center;fillColor=#6a00ff;strokeColor=#3700CC;fontColor=#ffffff;" parent="1" vertex="1">
          <mxGeometry x="47" y="-2193" width="280" height="430" as="geometry" />
        </mxCell>
        <mxCell id="60da8b9f42644d3a-18" value="2.后台服务" style="text;html=1;strokeColor=none;fillColor=none;align=center;verticalAlign=middle;whiteSpace=wrap;rounded=0;shadow=0;fontSize=27;fontColor=#FFFFFF;fontStyle=1" parent="1" vertex="1">
          <mxGeometry x="47" y="-2150" width="280" height="60" as="geometry" />
        </mxCell>
        <mxCell id="60da8b9f42644d3a-19" value="&lt;div style=&quot;text-align: justify; font-size: 21px;&quot;&gt;&lt;span style=&quot;font-size: 21px;&quot;&gt;2-1 数据图像采集&lt;/span&gt;&lt;/div&gt;&lt;div style=&quot;text-align: justify; font-size: 21px;&quot;&gt;&lt;span style=&quot;font-size: 21px;&quot;&gt;2-2 数据检测及识别&lt;/span&gt;&lt;/div&gt;&lt;div style=&quot;text-align: justify; font-size: 21px;&quot;&gt;&lt;span style=&quot;font-size: 21px;&quot;&gt;2-3 识别后的数据存数据库&lt;/span&gt;&lt;/div&gt;&lt;div style=&quot;text-align: justify; font-size: 21px;&quot;&gt;&lt;span style=&quot;font-size: 21px;&quot;&gt;2-4 发布web服务&lt;/span&gt;&lt;/div&gt;" style="text;html=1;strokeColor=none;fillColor=none;align=center;verticalAlign=middle;whiteSpace=wrap;rounded=0;shadow=0;fontSize=21;fontColor=#FFFFFF;" parent="1" vertex="1">
          <mxGeometry x="55" y="-1944" width="280" height="180" as="geometry" />
        </mxCell>
        <mxCell id="60da8b9f42644d3a-20" value="" style="line;strokeWidth=2;html=1;rounded=0;shadow=0;fontSize=27;align=center;fillColor=none;strokeColor=#FFFFFF;" parent="1" vertex="1">
          <mxGeometry x="67" y="-2090" width="240" height="10" as="geometry" />
        </mxCell>
        <mxCell id="60da8b9f42644d3a-21" value="" style="line;strokeWidth=2;html=1;rounded=0;shadow=0;fontSize=27;align=center;fillColor=none;strokeColor=#FFFFFF;" parent="1" vertex="1">
          <mxGeometry x="70.95" y="-1940" width="240" height="10" as="geometry" />
        </mxCell>
        <mxCell id="60da8b9f42644d3a-24" value="" style="whiteSpace=wrap;html=1;rounded=1;shadow=0;strokeWidth=8;fontSize=20;align=center;fillColor=#0050ef;strokeColor=#001DBC;fontColor=#ffffff;" parent="1" vertex="1">
          <mxGeometry x="470" y="-2193" width="280" height="430" as="geometry" />
        </mxCell>
        <mxCell id="60da8b9f42644d3a-25" value="3.用户查看" style="text;html=1;strokeColor=none;fillColor=none;align=center;verticalAlign=middle;whiteSpace=wrap;rounded=0;shadow=0;fontSize=27;fontColor=#FFFFFF;fontStyle=1" parent="1" vertex="1">
          <mxGeometry x="470" y="-2150" width="280" height="60" as="geometry" />
        </mxCell>
        <mxCell id="60da8b9f42644d3a-26" value="用户通过网页查询数据" style="text;html=1;strokeColor=none;fillColor=none;align=center;verticalAlign=middle;whiteSpace=wrap;rounded=0;shadow=0;fontSize=21;fontColor=#FFFFFF;" parent="1" vertex="1">
          <mxGeometry x="470" y="-1943" width="280" height="180" as="geometry" />
        </mxCell>
        <mxCell id="60da8b9f42644d3a-27" value="" style="line;strokeWidth=2;html=1;rounded=0;shadow=0;fontSize=27;align=center;fillColor=none;strokeColor=#FFFFFF;" parent="1" vertex="1">
          <mxGeometry x="490" y="-2090" width="240" height="10" as="geometry" />
        </mxCell>
        <mxCell id="60da8b9f42644d3a-28" value="" style="line;strokeWidth=2;html=1;rounded=0;shadow=0;fontSize=27;align=center;fillColor=none;strokeColor=#FFFFFF;" parent="1" vertex="1">
          <mxGeometry x="490" y="-1940" width="240" height="10" as="geometry" />
        </mxCell>
        <mxCell id="7IsFOkAJ-KQFbWKPf2J0-1" value="" style="fontColor=#0066CC;verticalAlign=top;verticalLabelPosition=bottom;labelPosition=center;align=center;html=1;outlineConnect=0;fillColor=#CCCCCC;strokeColor=#6881B3;gradientColor=none;gradientDirection=north;strokeWidth=2;shape=mxgraph.networks.security_camera;" parent="1" vertex="1">
          <mxGeometry x="-307" y="-2070" width="100" height="75" as="geometry" />
        </mxCell>
        <mxCell id="7IsFOkAJ-KQFbWKPf2J0-3" value="" style="fontColor=#0066CC;verticalAlign=top;verticalLabelPosition=bottom;labelPosition=center;align=center;html=1;outlineConnect=0;fillColor=#CCCCCC;strokeColor=#6881B3;gradientColor=none;gradientDirection=north;strokeWidth=2;shape=mxgraph.networks.security_camera;" parent="1" vertex="1">
          <mxGeometry x="-307" y="-1880" width="100" height="75" as="geometry" />
        </mxCell>
        <mxCell id="7IsFOkAJ-KQFbWKPf2J0-4" value="&lt;font style=&quot;font-size: 34px;&quot;&gt;...&lt;/font&gt;" style="text;html=1;strokeColor=none;fillColor=none;align=center;verticalAlign=middle;whiteSpace=wrap;rounded=0;horizontal=0;direction=south;fontSize=34;fontStyle=1" parent="1" vertex="1">
          <mxGeometry x="-280" y="-1960" width="20" height="50" as="geometry" />
        </mxCell>
        <mxCell id="7IsFOkAJ-KQFbWKPf2J0-7" value="" style="points=[];aspect=fixed;html=1;align=center;shadow=0;dashed=0;image;image=img/lib/allied_telesis/computer_and_terminals/Server_Desktop.svg;fontSize=34;" parent="1" vertex="1">
          <mxGeometry x="147.56" y="-2062" width="86.78" height="110" as="geometry" />
        </mxCell>
        <mxCell id="7IsFOkAJ-KQFbWKPf2J0-8" value="" style="points=[];aspect=fixed;html=1;align=center;shadow=0;dashed=0;image;image=img/lib/allied_telesis/computer_and_terminals/Personal_Computer_with_Server.svg;fontSize=34;" parent="1" vertex="1">
          <mxGeometry x="558.8" y="-2057.4" width="97.4" height="97.4" as="geometry" />
        </mxCell>
        <mxCell id="7IsFOkAJ-KQFbWKPf2J0-13" value="" style="endArrow=classic;html=1;fontSize=21;fontColor=#99FFFF;exitX=1;exitY=0.588;exitDx=0;exitDy=0;exitPerimeter=0;dashed=1;" parent="1" source="60da8b9f42644d3a-2" edge="1">
          <mxGeometry width="50" height="50" relative="1" as="geometry">
            <mxPoint x="-120" y="-1900" as="sourcePoint" />
            <mxPoint x="40" y="-2000" as="targetPoint" />
          </mxGeometry>
        </mxCell>
        <mxCell id="7IsFOkAJ-KQFbWKPf2J0-18" value="" style="endArrow=classic;html=1;fontSize=21;fontColor=#99FFFF;strokeWidth=2;entryX=-0.026;entryY=0.434;entryDx=0;entryDy=0;entryPerimeter=0;exitX=0.989;exitY=0.371;exitDx=0;exitDy=0;exitPerimeter=0;" parent="1" source="60da8b9f42644d3a-2" target="60da8b9f42644d3a-17" edge="1">
          <mxGeometry relative="1" as="geometry">
            <mxPoint x="-99.5" y="-2033.3300000000002" as="sourcePoint" />
            <mxPoint x="0.5" y="-2033.3300000000002" as="targetPoint" />
          </mxGeometry>
        </mxCell>
        <mxCell id="7IsFOkAJ-KQFbWKPf2J0-19" value="视频流" style="edgeLabel;resizable=0;html=1;align=center;verticalAlign=middle;fontSize=19;" parent="7IsFOkAJ-KQFbWKPf2J0-18" connectable="0" vertex="1">
          <mxGeometry relative="1" as="geometry" />
        </mxCell>
        <mxCell id="7IsFOkAJ-KQFbWKPf2J0-20" value="" style="endArrow=classic;html=1;fontSize=21;fontColor=#99FFFF;strokeWidth=2;exitX=1.013;exitY=0.806;exitDx=0;exitDy=0;exitPerimeter=0;" parent="1" source="60da8b9f42644d3a-2" edge="1">
          <mxGeometry relative="1" as="geometry">
            <mxPoint x="-110.07999999999993" y="-2023.47" as="sourcePoint" />
            <mxPoint x="40" y="-1990" as="targetPoint" />
          </mxGeometry>
        </mxCell>
        <mxCell id="7IsFOkAJ-KQFbWKPf2J0-21" value="视频流" style="edgeLabel;resizable=0;html=1;align=center;verticalAlign=middle;fontSize=19;" parent="7IsFOkAJ-KQFbWKPf2J0-20" connectable="0" vertex="1">
          <mxGeometry relative="1" as="geometry" />
        </mxCell>
        <mxCell id="7IsFOkAJ-KQFbWKPf2J0-24" value="" style="endArrow=classic;html=1;fontSize=21;fontColor=#99FFFF;strokeWidth=2;exitX=1.01;exitY=0.43;exitDx=0;exitDy=0;exitPerimeter=0;entryX=-0.001;entryY=0.422;entryDx=0;entryDy=0;entryPerimeter=0;" parent="1" source="60da8b9f42644d3a-17" target="60da8b9f42644d3a-24" edge="1">
          <mxGeometry relative="1" as="geometry">
            <mxPoint x="320" y="-2010" as="sourcePoint" />
            <mxPoint x="470" y="-2010" as="targetPoint" />
          </mxGeometry>
        </mxCell>
        <mxCell id="7IsFOkAJ-KQFbWKPf2J0-25" value="WEB服务&lt;br&gt;" style="edgeLabel;resizable=0;html=1;align=center;verticalAlign=middle;fontSize=19;" parent="7IsFOkAJ-KQFbWKPf2J0-24" connectable="0" vertex="1">
          <mxGeometry relative="1" as="geometry" />
        </mxCell>
        <mxCell id="7IsFOkAJ-KQFbWKPf2J0-26" value="" style="endArrow=classic;startArrow=classic;html=1;strokeWidth=2;fontSize=19;fontColor=#99FFFF;" parent="1" edge="1">
          <mxGeometry width="50" height="50" relative="1" as="geometry">
            <mxPoint x="330" y="-1988" as="sourcePoint" />
            <mxPoint x="467" y="-1990" as="targetPoint" />
            <Array as="points" />
          </mxGeometry>
        </mxCell>
      </root>
    </mxGraphModel>
  </diagram>
</mxfile>
